<svg width="32" height="32" viewBox="0 0 32 32" fill="none" xmlns="http://www.w3.org/2000/svg">
  <rect width="32" height="32" rx="8" fill="#2563EB"/>
  <rect x="6" y="6" width="4" height="4" fill="white"/>
  <rect x="6" y="12" width="4" height="4" fill="white"/>
  <rect x="6" y="18" width="4" height="4" fill="white"/>
  <rect x="12" y="6" width="4" height="4" fill="white"/>
  <rect x="12" y="18" width="4" height="4" fill="white"/>
  <rect x="18" y="6" width="4" height="4" fill="white"/>
  <rect x="18" y="12" width="4" height="4" fill="white"/>
  <rect x="18" y="18" width="4" height="4" fill="white"/>
  <rect x="24" y="6" width="2" height="2" fill="white"/>
  <rect x="24" y="10" width="2" height="2" fill="white"/>
  <rect x="24" y="14" width="2" height="2" fill="white"/>
  <rect x="24" y="18" width="2" height="2" fill="white"/>
  <rect x="24" y="22" width="2" height="2" fill="white"/>
  <rect x="6" y="24" width="2" height="2" fill="white"/>
  <rect x="10" y="24" width="2" height="2" fill="white"/>
  <rect x="14" y="24" width="2" height="2" fill="white"/>
  <rect x="18" y="24" width="2" height="2" fill="white"/>
  <rect x="22" y="24" width="2" height="2" fill="white"/>
</svg>